<mxfile host="app.diagrams.net" modified="2023-07-25T19:12:53.536Z" agent="Mozilla/5.0 (Windows NT 10.0; Win64; x64) AppleWebKit/537.36 (KHTML, like Gecko) Chrome/114.0.0.0 Safari/537.36" etag="fIQUTpAIyGuQvFDJjERx" version="21.6.5" type="device">
  <diagram name="Page-1" id="BPyvLL14eU_Gg8XlrEKY">
    <mxGraphModel dx="1314" dy="1870" grid="1" gridSize="10" guides="1" tooltips="1" connect="1" arrows="1" fold="1" page="1" pageScale="1" pageWidth="850" pageHeight="1100" math="0" shadow="0">
      <root>
        <mxCell id="0" />
        <mxCell id="1" parent="0" />
        <mxCell id="IIABDEV4x_dDp4yzhSnT-120" value="" style="rounded=0;whiteSpace=wrap;html=1;" vertex="1" parent="1">
          <mxGeometry x="90" y="-650" width="900" height="900" as="geometry" />
        </mxCell>
        <mxCell id="IIABDEV4x_dDp4yzhSnT-119" style="edgeStyle=orthogonalEdgeStyle;rounded=0;orthogonalLoop=1;jettySize=auto;html=1;entryX=0;entryY=0.75;entryDx=0;entryDy=0;strokeWidth=2;dashed=1;" edge="1" parent="1" target="IIABDEV4x_dDp4yzhSnT-59">
          <mxGeometry relative="1" as="geometry">
            <mxPoint x="670" y="-82" as="sourcePoint" />
            <Array as="points">
              <mxPoint x="700" y="-82" />
              <mxPoint x="700" y="-82" />
            </Array>
          </mxGeometry>
        </mxCell>
        <mxCell id="IIABDEV4x_dDp4yzhSnT-84" value="" style="group" vertex="1" connectable="0" parent="1">
          <mxGeometry x="718" y="-630" width="250" height="170" as="geometry" />
        </mxCell>
        <mxCell id="IIABDEV4x_dDp4yzhSnT-19" value="" style="rounded=0;whiteSpace=wrap;html=1;fillColor=#f5f5f5;fontColor=#333333;strokeColor=#666666;" vertex="1" parent="IIABDEV4x_dDp4yzhSnT-84">
          <mxGeometry y="1" width="250" height="169" as="geometry" />
        </mxCell>
        <mxCell id="IIABDEV4x_dDp4yzhSnT-20" value="Sequence Adapter and Quality Trimming" style="rounded=0;whiteSpace=wrap;html=1;fillColor=#647687;fontColor=#ffffff;strokeColor=#314354;fontStyle=1" vertex="1" parent="IIABDEV4x_dDp4yzhSnT-84">
          <mxGeometry width="250" height="30" as="geometry" />
        </mxCell>
        <mxCell id="IIABDEV4x_dDp4yzhSnT-21" value="Trimming" style="rounded=0;whiteSpace=wrap;html=1;fillColor=#6d8764;strokeColor=#3A5431;fontColor=#ffffff;" vertex="1" parent="IIABDEV4x_dDp4yzhSnT-84">
          <mxGeometry x="15.5" y="60" width="219" height="20" as="geometry" />
        </mxCell>
        <mxCell id="IIABDEV4x_dDp4yzhSnT-22" value="./01_TrimGalore.sh" style="rounded=0;whiteSpace=wrap;html=1;fontStyle=2;fontSize=10;" vertex="1" parent="IIABDEV4x_dDp4yzhSnT-84">
          <mxGeometry x="15.5" y="80" width="219" height="20" as="geometry" />
        </mxCell>
        <mxCell id="IIABDEV4x_dDp4yzhSnT-23" value="Trimming QC Report" style="rounded=0;whiteSpace=wrap;html=1;fillColor=#6d8764;strokeColor=#3A5431;fontColor=#ffffff;" vertex="1" parent="IIABDEV4x_dDp4yzhSnT-84">
          <mxGeometry x="15.5" y="113" width="219" height="20" as="geometry" />
        </mxCell>
        <mxCell id="IIABDEV4x_dDp4yzhSnT-24" value="./02_MultiQC.sh" style="rounded=0;whiteSpace=wrap;html=1;fontStyle=2;fontSize=10;" vertex="1" parent="IIABDEV4x_dDp4yzhSnT-84">
          <mxGeometry x="15.5" y="133" width="219" height="20" as="geometry" />
        </mxCell>
        <mxCell id="IIABDEV4x_dDp4yzhSnT-25" value="/02_Trim" style="rounded=0;whiteSpace=wrap;html=1;fillColor=#647687;strokeColor=#314354;fontColor=#ffffff;" vertex="1" parent="IIABDEV4x_dDp4yzhSnT-84">
          <mxGeometry y="30" width="120" height="20" as="geometry" />
        </mxCell>
        <mxCell id="IIABDEV4x_dDp4yzhSnT-85" value="" style="group" vertex="1" connectable="0" parent="1">
          <mxGeometry x="718" y="-420" width="250" height="170" as="geometry" />
        </mxCell>
        <mxCell id="IIABDEV4x_dDp4yzhSnT-26" value="" style="rounded=0;whiteSpace=wrap;html=1;fillColor=#f5f5f5;fontColor=#333333;strokeColor=#666666;" vertex="1" parent="IIABDEV4x_dDp4yzhSnT-85">
          <mxGeometry y="1" width="250" height="169" as="geometry" />
        </mxCell>
        <mxCell id="IIABDEV4x_dDp4yzhSnT-27" value="Sequence Alignment to Reference Genome" style="rounded=0;whiteSpace=wrap;html=1;fillColor=#647687;fontColor=#ffffff;strokeColor=#314354;fontStyle=1" vertex="1" parent="IIABDEV4x_dDp4yzhSnT-85">
          <mxGeometry width="250" height="30" as="geometry" />
        </mxCell>
        <mxCell id="IIABDEV4x_dDp4yzhSnT-28" value="Alignment to Reference" style="rounded=0;whiteSpace=wrap;html=1;fillColor=#6d8764;strokeColor=#3A5431;fontColor=#ffffff;" vertex="1" parent="IIABDEV4x_dDp4yzhSnT-85">
          <mxGeometry x="15.5" y="60" width="219" height="20" as="geometry" />
        </mxCell>
        <mxCell id="IIABDEV4x_dDp4yzhSnT-29" value="./01_bowtie2.sh" style="rounded=0;whiteSpace=wrap;html=1;fontStyle=2;fontSize=10;" vertex="1" parent="IIABDEV4x_dDp4yzhSnT-85">
          <mxGeometry x="15.5" y="80" width="219" height="20" as="geometry" />
        </mxCell>
        <mxCell id="IIABDEV4x_dDp4yzhSnT-30" value="SAM to BAM Conversion" style="rounded=0;whiteSpace=wrap;html=1;fillColor=#6d8764;strokeColor=#3A5431;fontColor=#ffffff;" vertex="1" parent="IIABDEV4x_dDp4yzhSnT-85">
          <mxGeometry x="15.5" y="113" width="219" height="20" as="geometry" />
        </mxCell>
        <mxCell id="IIABDEV4x_dDp4yzhSnT-31" value="./02_sam_to_bam.sh" style="rounded=0;whiteSpace=wrap;html=1;fontStyle=2;fontSize=10;" vertex="1" parent="IIABDEV4x_dDp4yzhSnT-85">
          <mxGeometry x="15.5" y="133" width="219" height="20" as="geometry" />
        </mxCell>
        <mxCell id="IIABDEV4x_dDp4yzhSnT-32" value="/03_Align" style="rounded=0;whiteSpace=wrap;html=1;fillColor=#647687;strokeColor=#314354;fontColor=#ffffff;" vertex="1" parent="IIABDEV4x_dDp4yzhSnT-85">
          <mxGeometry y="30" width="120" height="20" as="geometry" />
        </mxCell>
        <mxCell id="IIABDEV4x_dDp4yzhSnT-86" value="" style="group" vertex="1" connectable="0" parent="1">
          <mxGeometry x="718" y="-210" width="250" height="170" as="geometry" />
        </mxCell>
        <mxCell id="IIABDEV4x_dDp4yzhSnT-59" value="" style="rounded=0;whiteSpace=wrap;html=1;fillColor=#f5f5f5;fontColor=#333333;strokeColor=#666666;" vertex="1" parent="IIABDEV4x_dDp4yzhSnT-86">
          <mxGeometry y="1" width="250" height="169" as="geometry" />
        </mxCell>
        <mxCell id="IIABDEV4x_dDp4yzhSnT-60" value="Variant Calling" style="rounded=0;whiteSpace=wrap;html=1;fillColor=#647687;fontColor=#ffffff;strokeColor=#314354;fontStyle=1" vertex="1" parent="IIABDEV4x_dDp4yzhSnT-86">
          <mxGeometry width="250" height="30" as="geometry" />
        </mxCell>
        <mxCell id="IIABDEV4x_dDp4yzhSnT-61" value="Call Variants Using HaplotypeCaller" style="rounded=0;whiteSpace=wrap;html=1;fillColor=#6d8764;strokeColor=#3A5431;fontColor=#ffffff;" vertex="1" parent="IIABDEV4x_dDp4yzhSnT-86">
          <mxGeometry x="15.5" y="60" width="219" height="20" as="geometry" />
        </mxCell>
        <mxCell id="IIABDEV4x_dDp4yzhSnT-62" value="./01a_HaplotypeCaller.sh" style="rounded=0;whiteSpace=wrap;html=1;fontStyle=2;fontSize=10;" vertex="1" parent="IIABDEV4x_dDp4yzhSnT-86">
          <mxGeometry x="15.5" y="80" width="219" height="20" as="geometry" />
        </mxCell>
        <mxCell id="IIABDEV4x_dDp4yzhSnT-63" value="Call Variants Using DeepVariant" style="rounded=0;whiteSpace=wrap;html=1;fillColor=#6d8764;strokeColor=#3A5431;fontColor=#ffffff;" vertex="1" parent="IIABDEV4x_dDp4yzhSnT-86">
          <mxGeometry x="15.5" y="113" width="219" height="20" as="geometry" />
        </mxCell>
        <mxCell id="IIABDEV4x_dDp4yzhSnT-64" value="./01b_DeepVariant" style="rounded=0;whiteSpace=wrap;html=1;fontStyle=2;fontSize=10;" vertex="1" parent="IIABDEV4x_dDp4yzhSnT-86">
          <mxGeometry x="15.5" y="133" width="219" height="20" as="geometry" />
        </mxCell>
        <mxCell id="IIABDEV4x_dDp4yzhSnT-65" value="/06_Call_Variants" style="rounded=0;whiteSpace=wrap;html=1;fillColor=#647687;strokeColor=#314354;fontColor=#ffffff;" vertex="1" parent="IIABDEV4x_dDp4yzhSnT-86">
          <mxGeometry y="30" width="120" height="20" as="geometry" />
        </mxCell>
        <mxCell id="IIABDEV4x_dDp4yzhSnT-87" value="" style="group" vertex="1" connectable="0" parent="1">
          <mxGeometry x="718" width="250" height="230" as="geometry" />
        </mxCell>
        <mxCell id="IIABDEV4x_dDp4yzhSnT-70" value="" style="rounded=0;whiteSpace=wrap;html=1;fillColor=#f5f5f5;fontColor=#333333;strokeColor=#666666;" vertex="1" parent="IIABDEV4x_dDp4yzhSnT-87">
          <mxGeometry y="1" width="250" height="229" as="geometry" />
        </mxCell>
        <mxCell id="IIABDEV4x_dDp4yzhSnT-71" value="Variant Association Analysis&amp;nbsp;" style="rounded=0;whiteSpace=wrap;html=1;fillColor=#647687;fontColor=#ffffff;strokeColor=#314354;fontStyle=1" vertex="1" parent="IIABDEV4x_dDp4yzhSnT-87">
          <mxGeometry width="250" height="30" as="geometry" />
        </mxCell>
        <mxCell id="IIABDEV4x_dDp4yzhSnT-72" value="Pre-Process DeepVariant Calls" style="rounded=0;whiteSpace=wrap;html=1;fillColor=#6d8764;strokeColor=#3A5431;fontColor=#ffffff;" vertex="1" parent="IIABDEV4x_dDp4yzhSnT-87">
          <mxGeometry x="15.5" y="60" width="219" height="20" as="geometry" />
        </mxCell>
        <mxCell id="IIABDEV4x_dDp4yzhSnT-73" value="./01_pre_process_vcfs_deepvariant/process.sh" style="rounded=0;whiteSpace=wrap;html=1;fontStyle=2;fontSize=10;" vertex="1" parent="IIABDEV4x_dDp4yzhSnT-87">
          <mxGeometry x="15.5" y="80" width="219" height="20" as="geometry" />
        </mxCell>
        <mxCell id="IIABDEV4x_dDp4yzhSnT-74" value="Pre-Process HaplotypeCaller Calls" style="rounded=0;whiteSpace=wrap;html=1;fillColor=#6d8764;strokeColor=#3A5431;fontColor=#ffffff;" vertex="1" parent="IIABDEV4x_dDp4yzhSnT-87">
          <mxGeometry x="15.5" y="113" width="219" height="20" as="geometry" />
        </mxCell>
        <mxCell id="IIABDEV4x_dDp4yzhSnT-75" value="./01_pre_process_vcfs_haplotype.sh/process.sh" style="rounded=0;whiteSpace=wrap;html=1;fontStyle=2;fontSize=10;" vertex="1" parent="IIABDEV4x_dDp4yzhSnT-87">
          <mxGeometry x="15.5" y="133" width="219" height="20" as="geometry" />
        </mxCell>
        <mxCell id="IIABDEV4x_dDp4yzhSnT-76" value="/07_PLINK" style="rounded=0;whiteSpace=wrap;html=1;fillColor=#647687;strokeColor=#314354;fontColor=#ffffff;" vertex="1" parent="IIABDEV4x_dDp4yzhSnT-87">
          <mxGeometry y="30" width="120" height="20" as="geometry" />
        </mxCell>
        <mxCell id="IIABDEV4x_dDp4yzhSnT-78" value="Perform Association Analysis" style="rounded=0;whiteSpace=wrap;html=1;fillColor=#6d8764;strokeColor=#3A5431;fontColor=#ffffff;" vertex="1" parent="IIABDEV4x_dDp4yzhSnT-87">
          <mxGeometry x="15.5" y="166" width="219" height="20" as="geometry" />
        </mxCell>
        <mxCell id="IIABDEV4x_dDp4yzhSnT-79" value="./02_plink20/Plink20.sh" style="rounded=0;whiteSpace=wrap;html=1;fontStyle=2;fontSize=10;" vertex="1" parent="IIABDEV4x_dDp4yzhSnT-87">
          <mxGeometry x="15.5" y="186" width="219" height="20" as="geometry" />
        </mxCell>
        <mxCell id="IIABDEV4x_dDp4yzhSnT-94" style="edgeStyle=orthogonalEdgeStyle;rounded=0;orthogonalLoop=1;jettySize=auto;html=1;exitX=0.5;exitY=1;exitDx=0;exitDy=0;entryX=0.5;entryY=0;entryDx=0;entryDy=0;strokeWidth=2;" edge="1" parent="1" source="IIABDEV4x_dDp4yzhSnT-59" target="IIABDEV4x_dDp4yzhSnT-71">
          <mxGeometry relative="1" as="geometry" />
        </mxCell>
        <mxCell id="IIABDEV4x_dDp4yzhSnT-96" value="" style="group" vertex="1" connectable="0" parent="1">
          <mxGeometry x="80" y="-190" width="660" height="420" as="geometry" />
        </mxCell>
        <mxCell id="IIABDEV4x_dDp4yzhSnT-97" value="" style="rounded=0;whiteSpace=wrap;html=1;fillColor=#f5f5f5;fontColor=#333333;strokeColor=#666666;" vertex="1" parent="IIABDEV4x_dDp4yzhSnT-96">
          <mxGeometry x="30" y="1.0022727272727272" width="570" height="418.9977272727273" as="geometry" />
        </mxCell>
        <mxCell id="IIABDEV4x_dDp4yzhSnT-98" value="&amp;nbsp; &amp;nbsp; Optional Processing for Analysis with GATK Tools" style="rounded=0;whiteSpace=wrap;html=1;fillColor=#76608a;fontColor=#ffffff;strokeColor=#432D57;align=left;fontStyle=1" vertex="1" parent="IIABDEV4x_dDp4yzhSnT-96">
          <mxGeometry x="30" width="570" height="30.001363636363635" as="geometry" />
        </mxCell>
        <mxCell id="IIABDEV4x_dDp4yzhSnT-89" value="" style="group;fillColor=#647687;fontColor=#ffffff;strokeColor=#314354;" vertex="1" connectable="0" parent="IIABDEV4x_dDp4yzhSnT-96">
          <mxGeometry x="331.5" y="93.99590909090908" width="250" height="280.00000000000006" as="geometry" />
        </mxCell>
        <mxCell id="IIABDEV4x_dDp4yzhSnT-46" value="" style="rounded=0;whiteSpace=wrap;html=1;fillColor=#f5f5f5;fontColor=#333333;strokeColor=#666666;" vertex="1" parent="IIABDEV4x_dDp4yzhSnT-89">
          <mxGeometry y="1" width="250" height="279.00000000000006" as="geometry" />
        </mxCell>
        <mxCell id="IIABDEV4x_dDp4yzhSnT-47" value="Base Quality Score Recalibration (BQSR)" style="rounded=0;whiteSpace=wrap;html=1;fillColor=#647687;fontColor=#ffffff;strokeColor=#314354;fontStyle=1" vertex="1" parent="IIABDEV4x_dDp4yzhSnT-89">
          <mxGeometry width="250" height="30.000000000000004" as="geometry" />
        </mxCell>
        <mxCell id="IIABDEV4x_dDp4yzhSnT-48" value="Generate Recalibration Data" style="rounded=0;whiteSpace=wrap;html=1;fillColor=#6d8764;strokeColor=#3A5431;fontColor=#ffffff;" vertex="1" parent="IIABDEV4x_dDp4yzhSnT-89">
          <mxGeometry x="15.5" y="60.00000000000001" width="219" height="20.000000000000004" as="geometry" />
        </mxCell>
        <mxCell id="IIABDEV4x_dDp4yzhSnT-49" value="./01_BaseRecalibrator.sh" style="rounded=0;whiteSpace=wrap;html=1;fontStyle=2;fontSize=10;" vertex="1" parent="IIABDEV4x_dDp4yzhSnT-89">
          <mxGeometry x="15.5" y="80.00000000000001" width="219" height="20.000000000000004" as="geometry" />
        </mxCell>
        <mxCell id="IIABDEV4x_dDp4yzhSnT-50" value="Perform Recalibration" style="rounded=0;whiteSpace=wrap;html=1;fillColor=#6d8764;strokeColor=#3A5431;fontColor=#ffffff;" vertex="1" parent="IIABDEV4x_dDp4yzhSnT-89">
          <mxGeometry x="15.5" y="113.00000000000001" width="219" height="20.000000000000004" as="geometry" />
        </mxCell>
        <mxCell id="IIABDEV4x_dDp4yzhSnT-51" value="./02_ApplyBQSR.sh" style="rounded=0;whiteSpace=wrap;html=1;fontStyle=2;fontSize=10;" vertex="1" parent="IIABDEV4x_dDp4yzhSnT-89">
          <mxGeometry x="15.5" y="133" width="219" height="20.000000000000004" as="geometry" />
        </mxCell>
        <mxCell id="IIABDEV4x_dDp4yzhSnT-52" value="/05_BQSR" style="rounded=0;whiteSpace=wrap;html=1;fillColor=#647687;strokeColor=#314354;fontColor=#ffffff;" vertex="1" parent="IIABDEV4x_dDp4yzhSnT-89">
          <mxGeometry y="30.000000000000004" width="120" height="20.000000000000004" as="geometry" />
        </mxCell>
        <mxCell id="IIABDEV4x_dDp4yzhSnT-53" value="Generate Post-Recalibration Data" style="rounded=0;whiteSpace=wrap;html=1;fillColor=#6d8764;strokeColor=#3A5431;fontColor=#ffffff;" vertex="1" parent="IIABDEV4x_dDp4yzhSnT-89">
          <mxGeometry x="15.5" y="166.00000000000003" width="219" height="20.000000000000004" as="geometry" />
        </mxCell>
        <mxCell id="IIABDEV4x_dDp4yzhSnT-54" value="./03_BaseRecalibrator.sh" style="rounded=0;whiteSpace=wrap;html=1;fontStyle=2;fontSize=10;" vertex="1" parent="IIABDEV4x_dDp4yzhSnT-89">
          <mxGeometry x="15.5" y="186.00000000000003" width="219" height="20.000000000000004" as="geometry" />
        </mxCell>
        <mxCell id="IIABDEV4x_dDp4yzhSnT-55" value="Generate Before/After Comparison" style="rounded=0;whiteSpace=wrap;html=1;fillColor=#6d8764;strokeColor=#3A5431;fontColor=#ffffff;" vertex="1" parent="IIABDEV4x_dDp4yzhSnT-89">
          <mxGeometry x="15.5" y="219.00000000000003" width="219" height="20.000000000000004" as="geometry" />
        </mxCell>
        <mxCell id="IIABDEV4x_dDp4yzhSnT-56" value="./04_AnalyzeCovariates.sh" style="rounded=0;whiteSpace=wrap;html=1;fontStyle=2;fontSize=10;" vertex="1" parent="IIABDEV4x_dDp4yzhSnT-89">
          <mxGeometry x="15.5" y="239.00000000000003" width="219" height="20.000000000000004" as="geometry" />
        </mxCell>
        <mxCell id="IIABDEV4x_dDp4yzhSnT-108" style="edgeStyle=orthogonalEdgeStyle;rounded=0;orthogonalLoop=1;jettySize=auto;html=1;exitX=1;exitY=0.5;exitDx=0;exitDy=0;strokeWidth=2;" edge="1" parent="IIABDEV4x_dDp4yzhSnT-96" source="IIABDEV4x_dDp4yzhSnT-33" target="IIABDEV4x_dDp4yzhSnT-46">
          <mxGeometry relative="1" as="geometry">
            <Array as="points">
              <mxPoint x="315.5" y="225" />
              <mxPoint x="315.5" y="225" />
            </Array>
          </mxGeometry>
        </mxCell>
        <mxCell id="IIABDEV4x_dDp4yzhSnT-33" value="" style="rounded=0;whiteSpace=wrap;html=1;fillColor=#f5f5f5;fontColor=#333333;strokeColor=#666666;" vertex="1" parent="IIABDEV4x_dDp4yzhSnT-96">
          <mxGeometry x="48.5" y="61" width="250" height="329" as="geometry" />
        </mxCell>
        <mxCell id="IIABDEV4x_dDp4yzhSnT-34" value="Duplicate Removal and Coordinate-Sorting" style="rounded=0;whiteSpace=wrap;html=1;fillColor=#647687;fontColor=#ffffff;strokeColor=#314354;fontStyle=1" vertex="1" parent="IIABDEV4x_dDp4yzhSnT-96">
          <mxGeometry x="48.5" y="60" width="250" height="30" as="geometry" />
        </mxCell>
        <mxCell id="IIABDEV4x_dDp4yzhSnT-35" value="Format Read Groups" style="rounded=0;whiteSpace=wrap;html=1;fillColor=#6d8764;strokeColor=#3A5431;fontColor=#ffffff;" vertex="1" parent="IIABDEV4x_dDp4yzhSnT-96">
          <mxGeometry x="64" y="120" width="219" height="20" as="geometry" />
        </mxCell>
        <mxCell id="IIABDEV4x_dDp4yzhSnT-36" value="./01_AddOrReplaceReadGroups.sh" style="rounded=0;whiteSpace=wrap;html=1;fontStyle=2;fontSize=10;" vertex="1" parent="IIABDEV4x_dDp4yzhSnT-96">
          <mxGeometry x="64" y="140" width="219" height="20" as="geometry" />
        </mxCell>
        <mxCell id="IIABDEV4x_dDp4yzhSnT-37" value="Mark Duplicates" style="rounded=0;whiteSpace=wrap;html=1;fillColor=#6d8764;strokeColor=#3A5431;fontColor=#ffffff;" vertex="1" parent="IIABDEV4x_dDp4yzhSnT-96">
          <mxGeometry x="64" y="173" width="219" height="20" as="geometry" />
        </mxCell>
        <mxCell id="IIABDEV4x_dDp4yzhSnT-38" value="./02_MarkDuplicatesSpark.sh" style="rounded=0;whiteSpace=wrap;html=1;fontStyle=2;fontSize=10;" vertex="1" parent="IIABDEV4x_dDp4yzhSnT-96">
          <mxGeometry x="64" y="193" width="219" height="20" as="geometry" />
        </mxCell>
        <mxCell id="IIABDEV4x_dDp4yzhSnT-39" value="/04_Sort" style="rounded=0;whiteSpace=wrap;html=1;fillColor=#647687;strokeColor=#314354;fontColor=#ffffff;" vertex="1" parent="IIABDEV4x_dDp4yzhSnT-96">
          <mxGeometry x="48.5" y="90" width="120" height="20" as="geometry" />
        </mxCell>
        <mxCell id="IIABDEV4x_dDp4yzhSnT-40" value="Format Nm, Md, and Uq Tags" style="rounded=0;whiteSpace=wrap;html=1;fillColor=#6d8764;strokeColor=#3A5431;fontColor=#ffffff;" vertex="1" parent="IIABDEV4x_dDp4yzhSnT-96">
          <mxGeometry x="64" y="226" width="219" height="20" as="geometry" />
        </mxCell>
        <mxCell id="IIABDEV4x_dDp4yzhSnT-41" value="./03_SetNmMdAndUqTags.sh" style="rounded=0;whiteSpace=wrap;html=1;fontStyle=2;fontSize=10;" vertex="1" parent="IIABDEV4x_dDp4yzhSnT-96">
          <mxGeometry x="64" y="246" width="219" height="20" as="geometry" />
        </mxCell>
        <mxCell id="IIABDEV4x_dDp4yzhSnT-42" value="Alignment QC Report" style="rounded=0;whiteSpace=wrap;html=1;fillColor=#6d8764;strokeColor=#3A5431;fontColor=#ffffff;" vertex="1" parent="IIABDEV4x_dDp4yzhSnT-96">
          <mxGeometry x="64" y="279" width="219" height="20" as="geometry" />
        </mxCell>
        <mxCell id="IIABDEV4x_dDp4yzhSnT-43" value="./04a_QualiMap.sh" style="rounded=0;whiteSpace=wrap;html=1;fontStyle=2;fontSize=10;" vertex="1" parent="IIABDEV4x_dDp4yzhSnT-96">
          <mxGeometry x="64" y="299" width="219" height="20" as="geometry" />
        </mxCell>
        <mxCell id="IIABDEV4x_dDp4yzhSnT-44" value="Population-Level QC Report" style="rounded=0;whiteSpace=wrap;html=1;fillColor=#6d8764;strokeColor=#3A5431;fontColor=#ffffff;" vertex="1" parent="IIABDEV4x_dDp4yzhSnT-96">
          <mxGeometry x="64" y="330" width="219" height="20" as="geometry" />
        </mxCell>
        <mxCell id="IIABDEV4x_dDp4yzhSnT-45" value="./04b_MultiQC.sh" style="rounded=0;whiteSpace=wrap;html=1;fontStyle=2;fontSize=10;" vertex="1" parent="IIABDEV4x_dDp4yzhSnT-96">
          <mxGeometry x="64" y="350" width="219" height="20" as="geometry" />
        </mxCell>
        <mxCell id="IIABDEV4x_dDp4yzhSnT-113" style="edgeStyle=orthogonalEdgeStyle;rounded=0;orthogonalLoop=1;jettySize=auto;html=1;strokeWidth=2;entryX=0;entryY=0.75;entryDx=0;entryDy=0;" edge="1" parent="1" target="IIABDEV4x_dDp4yzhSnT-19">
          <mxGeometry relative="1" as="geometry">
            <mxPoint x="650" y="-500" as="sourcePoint" />
            <Array as="points">
              <mxPoint x="648" y="-500" />
              <mxPoint x="650" y="-500" />
              <mxPoint x="650" y="-502" />
            </Array>
          </mxGeometry>
        </mxCell>
        <mxCell id="IIABDEV4x_dDp4yzhSnT-114" style="edgeStyle=orthogonalEdgeStyle;rounded=0;orthogonalLoop=1;jettySize=auto;html=1;exitX=0.5;exitY=1;exitDx=0;exitDy=0;entryX=0.5;entryY=0;entryDx=0;entryDy=0;strokeWidth=2;" edge="1" parent="1" source="IIABDEV4x_dDp4yzhSnT-19" target="IIABDEV4x_dDp4yzhSnT-27">
          <mxGeometry relative="1" as="geometry" />
        </mxCell>
        <mxCell id="IIABDEV4x_dDp4yzhSnT-117" style="edgeStyle=orthogonalEdgeStyle;rounded=0;orthogonalLoop=1;jettySize=auto;html=1;exitX=0;exitY=0.75;exitDx=0;exitDy=0;entryX=0.75;entryY=0;entryDx=0;entryDy=0;strokeWidth=2;dashed=1;" edge="1" parent="1" source="IIABDEV4x_dDp4yzhSnT-26" target="IIABDEV4x_dDp4yzhSnT-98">
          <mxGeometry relative="1" as="geometry" />
        </mxCell>
        <mxCell id="IIABDEV4x_dDp4yzhSnT-118" style="edgeStyle=orthogonalEdgeStyle;rounded=0;orthogonalLoop=1;jettySize=auto;html=1;exitX=0.5;exitY=1;exitDx=0;exitDy=0;entryX=0.5;entryY=0;entryDx=0;entryDy=0;strokeWidth=2;" edge="1" parent="1" source="IIABDEV4x_dDp4yzhSnT-26" target="IIABDEV4x_dDp4yzhSnT-60">
          <mxGeometry relative="1" as="geometry" />
        </mxCell>
        <mxCell id="IIABDEV4x_dDp4yzhSnT-121" style="edgeStyle=orthogonalEdgeStyle;rounded=0;orthogonalLoop=1;jettySize=auto;html=1;entryX=0;entryY=0.75;entryDx=0;entryDy=0;strokeWidth=2;" edge="1" parent="1" target="IIABDEV4x_dDp4yzhSnT-10">
          <mxGeometry relative="1" as="geometry">
            <mxPoint x="320" y="-502" as="sourcePoint" />
            <Array as="points">
              <mxPoint x="320" y="-502" />
            </Array>
          </mxGeometry>
        </mxCell>
        <mxCell id="IIABDEV4x_dDp4yzhSnT-83" value="" style="group" vertex="1" connectable="0" parent="1">
          <mxGeometry x="407" y="-630" width="250" height="170" as="geometry" />
        </mxCell>
        <mxCell id="IIABDEV4x_dDp4yzhSnT-10" value="" style="rounded=0;whiteSpace=wrap;html=1;fillColor=#f5f5f5;fontColor=#333333;strokeColor=#666666;" vertex="1" parent="IIABDEV4x_dDp4yzhSnT-83">
          <mxGeometry y="1" width="250" height="169" as="geometry" />
        </mxCell>
        <mxCell id="IIABDEV4x_dDp4yzhSnT-11" value="Quality Control" style="rounded=0;whiteSpace=wrap;html=1;fillColor=#647687;fontColor=#ffffff;strokeColor=#314354;fontStyle=1" vertex="1" parent="IIABDEV4x_dDp4yzhSnT-83">
          <mxGeometry width="250" height="30" as="geometry" />
        </mxCell>
        <mxCell id="IIABDEV4x_dDp4yzhSnT-12" value="Sample-Level QC Reports" style="rounded=0;whiteSpace=wrap;html=1;fillColor=#6d8764;strokeColor=#3A5431;fontColor=#ffffff;" vertex="1" parent="IIABDEV4x_dDp4yzhSnT-83">
          <mxGeometry x="15.5" y="60" width="219" height="20" as="geometry" />
        </mxCell>
        <mxCell id="IIABDEV4x_dDp4yzhSnT-13" value="/01_FastQC.sh" style="rounded=0;whiteSpace=wrap;html=1;fontStyle=2;fontSize=10;" vertex="1" parent="IIABDEV4x_dDp4yzhSnT-83">
          <mxGeometry x="15.5" y="80" width="219" height="20" as="geometry" />
        </mxCell>
        <mxCell id="IIABDEV4x_dDp4yzhSnT-14" value="Population-Level QC Report" style="rounded=0;whiteSpace=wrap;html=1;fillColor=#6d8764;strokeColor=#3A5431;fontColor=#ffffff;" vertex="1" parent="IIABDEV4x_dDp4yzhSnT-83">
          <mxGeometry x="15.5" y="113" width="219" height="20" as="geometry" />
        </mxCell>
        <mxCell id="IIABDEV4x_dDp4yzhSnT-15" value="/02_MultiQC.sh" style="rounded=0;whiteSpace=wrap;html=1;fontStyle=2;fontSize=10;" vertex="1" parent="IIABDEV4x_dDp4yzhSnT-83">
          <mxGeometry x="15.5" y="133" width="219" height="20" as="geometry" />
        </mxCell>
        <mxCell id="IIABDEV4x_dDp4yzhSnT-18" value="/01_QC" style="rounded=0;whiteSpace=wrap;html=1;fillColor=#647687;strokeColor=#314354;fontColor=#ffffff;" vertex="1" parent="IIABDEV4x_dDp4yzhSnT-83">
          <mxGeometry y="30" width="120" height="20" as="geometry" />
        </mxCell>
        <mxCell id="IIABDEV4x_dDp4yzhSnT-82" value="" style="group" vertex="1" connectable="0" parent="1">
          <mxGeometry x="110" y="-630" width="250" height="221" as="geometry" />
        </mxCell>
        <mxCell id="CJUm-sTZ8so5hoklsYE3-132" value="" style="rounded=0;whiteSpace=wrap;html=1;fillColor=#f5f5f5;fontColor=#333333;strokeColor=#666666;" parent="IIABDEV4x_dDp4yzhSnT-82" vertex="1">
          <mxGeometry y="1" width="250" height="220" as="geometry" />
        </mxCell>
        <mxCell id="IIABDEV4x_dDp4yzhSnT-2" value="Import and Download Prerequisite Data" style="rounded=0;whiteSpace=wrap;html=1;fillColor=#647687;fontColor=#ffffff;strokeColor=#314354;fontStyle=1;fontSize=12;" vertex="1" parent="IIABDEV4x_dDp4yzhSnT-82">
          <mxGeometry width="250" height="30" as="geometry" />
        </mxCell>
        <mxCell id="IIABDEV4x_dDp4yzhSnT-3" value="Download/Create Bowtie2 Index" style="rounded=0;whiteSpace=wrap;html=1;fillColor=#6d8764;strokeColor=#3A5431;fontColor=#ffffff;" vertex="1" parent="IIABDEV4x_dDp4yzhSnT-82">
          <mxGeometry x="15.5" y="60" width="219" height="20" as="geometry" />
        </mxCell>
        <mxCell id="IIABDEV4x_dDp4yzhSnT-4" value="./DTN_get_index.sh" style="rounded=0;whiteSpace=wrap;html=1;fontStyle=2;fontSize=10;" vertex="1" parent="IIABDEV4x_dDp4yzhSnT-82">
          <mxGeometry x="15.5" y="80" width="219" height="20" as="geometry" />
        </mxCell>
        <mxCell id="IIABDEV4x_dDp4yzhSnT-5" value="Download Known Sites for BQSR" style="rounded=0;whiteSpace=wrap;html=1;fillColor=#6d8764;strokeColor=#3A5431;fontColor=#ffffff;" vertex="1" parent="IIABDEV4x_dDp4yzhSnT-82">
          <mxGeometry x="15.5" y="113" width="219" height="20" as="geometry" />
        </mxCell>
        <mxCell id="IIABDEV4x_dDp4yzhSnT-6" value="./known_sites/DTN_get_known_sites.sh" style="rounded=0;whiteSpace=wrap;html=1;fontStyle=2;fontSize=10;" vertex="1" parent="IIABDEV4x_dDp4yzhSnT-82">
          <mxGeometry x="15.5" y="133" width="219" height="20" as="geometry" />
        </mxCell>
        <mxCell id="IIABDEV4x_dDp4yzhSnT-7" value="Upload Original FASTQ Reads" style="rounded=0;whiteSpace=wrap;html=1;fillColor=#6d8764;strokeColor=#3A5431;fontColor=#ffffff;" vertex="1" parent="IIABDEV4x_dDp4yzhSnT-82">
          <mxGeometry x="15.5" y="166" width="219" height="20" as="geometry" />
        </mxCell>
        <mxCell id="IIABDEV4x_dDp4yzhSnT-8" value="./original_reads" style="rounded=0;whiteSpace=wrap;html=1;fontStyle=2;fontSize=10;" vertex="1" parent="IIABDEV4x_dDp4yzhSnT-82">
          <mxGeometry x="15.5" y="185" width="219" height="21" as="geometry" />
        </mxCell>
        <mxCell id="IIABDEV4x_dDp4yzhSnT-9" value="/00_Data" style="rounded=0;whiteSpace=wrap;html=1;fillColor=#647687;strokeColor=#314354;fontColor=#ffffff;" vertex="1" parent="IIABDEV4x_dDp4yzhSnT-82">
          <mxGeometry y="30" width="120" height="20" as="geometry" />
        </mxCell>
      </root>
    </mxGraphModel>
  </diagram>
</mxfile>
